<?xml version="1.0" standalone="no"?><svg xmlns="http://www.w3.org/2000/svg" viewBox="0 0 1440 320"><path fill="#C9B0F5" fill-opacity="1" d="M0,160L26.7,149.3C53.3,139,107,117,160,144C213.3,171,267,245,320,250.7C373.3,256,427,192,480,170.7C533.3,149,587,171,640,192C693.3,213,747,235,800,218.7C853.3,203,907,149,960,144C1013.3,139,1067,181,1120,202.7C1173.3,224,1227,224,1280,224C1333.3,224,1387,224,1413,224L1440,224L1440,320L1413.3,320C1386.7,320,1333,320,1280,320C1226.7,320,1173,320,1120,320C1066.7,320,1013,320,960,320C906.7,320,853,320,800,320C746.7,320,693,320,640,320C586.7,320,533,320,480,320C426.7,320,373,320,320,320C266.7,320,213,320,160,320C106.7,320,53,320,27,320L0,320Z"></path></svg>