<?xml version="1.0" standalone="no"?><svg xmlns="http://www.w3.org/2000/svg" viewBox="0 0 1440 320"><path fill="#C9B0F5" fill-opacity="1" d="M0,64L18.5,69.3C36.9,75,74,85,111,85.3C147.7,85,185,75,222,80C258.5,85,295,107,332,117.3C369.2,128,406,128,443,106.7C480,85,517,43,554,58.7C590.8,75,628,149,665,165.3C701.5,181,738,139,775,112C812.3,85,849,75,886,90.7C923.1,107,960,149,997,154.7C1033.8,160,1071,128,1108,112C1144.6,96,1182,96,1218,85.3C1255.4,75,1292,53,1329,58.7C1366.2,64,1403,96,1422,112L1440,128L1440,320L1421.5,320C1403.1,320,1366,320,1329,320C1292.3,320,1255,320,1218,320C1181.5,320,1145,320,1108,320C1070.8,320,1034,320,997,320C960,320,923,320,886,320C849.2,320,812,320,775,320C738.5,320,702,320,665,320C627.7,320,591,320,554,320C516.9,320,480,320,443,320C406.2,320,369,320,332,320C295.4,320,258,320,222,320C184.6,320,148,320,111,320C73.8,320,37,320,18,320L0,320Z"></path></svg>